#tb 0: 1/50
#media_type 0: video
#codec_id 0: rawvideo
#dimensions 0: 320x240
#sar 0: 1/1
0,          0,          0,        1,   307200, 0xf0d70414
0,          1,          1,        1,   307200, 0x75d668e8
0,          2,          2,        1,   307200, 0xca39d9c3
0,          3,          3,        1,   307200, 0xfacaf28f
0,          4,          4,        1,   307200, 0x00bb97bf
0,          5,          5,        1,   307200, 0xb309f05f
0,          6,          6,        1,   307200, 0x08a78b1e
0,          7,          7,        1,   307200, 0x1ec21037
0,          8,          8,        1,   307200, 0x45c901e4
0,          9,          9,        1,   307200, 0x460775a7
0,         10,         10,        1,   307200, 0x16ce3448
0,         11,         11,        1,   307200, 0x6bc2b063
0,         12,         12,        1,   307200, 0x4e628c33
0,         13,         13,        1,   307200, 0xc965923a
0,         14,         14,        1,   307200, 0x54c8fe7c
0,         15,         15,        1,   307200, 0x11758b98
0,         16,         16,        1,   307200, 0x73f988a8
0,         17,         17,        1,   307200, 0xb47223da
0,         18,         18,        1,   307200, 0x03af8c25
0,         19,         19,        1,   307200, 0x3871b12e
0,         20,         20,        1,   307200, 0x59447ef5
0,         21,         21,        1,   307200, 0xfb7918bd
0,         22,         22,        1,   307200, 0xe9c623db
0,         23,         23,        1,   307200, 0x78634f23
0,         24,         24,        1,   307200, 0x8229d18c
0,         25,         25,        1,   307200, 0xfb530895
0,         26,         26,        1,   307200, 0x118b22a4
0,         27,         27,        1,   307200, 0x4b39ea30
0,         28,         28,        1,   307200, 0xe2f0c1ff
0,         29,         29,        1,   307200, 0xcbc65013
0,         30,         30,        1,   307200, 0xf903e8d5
0,         31,         31,        1,   307200, 0x870fa119
0,         32,         32,        1,   307200, 0x7e5b2f5c
0,         33,         33,        1,   307200, 0x8b8a42a9
0,         34,         34,        1,   307200, 0xa4a429bc
0,         35,         35,        1,   307200, 0xf308c14c
0,         36,         36,        1,   307200, 0xf255baeb
0,         37,         37,        1,   307200, 0x8c4d949e
0,         38,         38,        1,   307200, 0x28b57e98
0,         39,         39,        1,   307200, 0x568cd24c
0,         40,         40,        1,   307200, 0xfc8e3884
0,         41,         41,        1,   307200, 0xfee05e7f
0,         42,         42,        1,   307200, 0x3502c242
0,         43,         43,        1,   307200, 0x3542901f
0,         44,         44,        1,   307200, 0x8d74850c
0,         45,         45,        1,   307200, 0x11d6693a
0,         46,         46,        1,   307200, 0x83cf7d6e
0,         47,         47,        1,   307200, 0x17ecef9a
0,         48,         48,        1,   307200, 0x37ba308f
0,         49,         49,        1,   307200, 0x7659d1ed
